<svg width="24" height="24" viewBox="0 0 24 24" fill="none" xmlns="http://www.w3.org/2000/svg">
<path d="M5.665 5.82301C4.998 5.82301 4.418 5.90301 3.924 6.06401C3.429 6.22501 2.994 6.42001 2.616 6.64701L2.274 6.08101H1.608L1.533 10.213H2.216C2.33204 9.75737 2.47666 9.30948 2.649 8.87201C2.821 8.42701 3.043 8.03001 3.315 7.68001C3.58383 7.33297 3.92509 7.0487 4.315 6.84701C4.704 6.63701 5.17 6.53101 5.715 6.53101C6.309 6.53101 6.839 6.65301 7.305 6.89701C7.772 7.13701 8.178 7.49401 8.522 7.97201C8.861 8.43301 9.122 9.00801 9.305 9.69601C9.489 10.386 9.58 11.154 9.58 12.004C9.58 12.196 9.574 12.384 9.563 12.571H0V13.179C0.133 13.195 0.314 13.223 0.541 13.262C0.763 13.295 0.944 13.345 1.083 13.412C1.24032 13.4861 1.36691 13.6127 1.441 13.77C1.508 13.92 1.541 14.098 1.541 14.304V15.22C1.541 15.886 1.538 16.336 1.533 16.57C1.52448 16.7615 1.51348 16.9528 1.5 17.144C2.21026 17.4676 2.94912 17.7244 3.707 17.911C4.41318 18.0852 5.13764 18.1745 5.865 18.177C6.62 18.177 7.348 18.036 8.048 17.752C8.73413 17.4775 9.35738 17.0665 9.88 16.544C10.4232 15.9928 10.8509 15.3387 11.138 14.62C11.3263 14.1574 11.4569 13.6735 11.527 13.179H12.473C12.548 13.69 12.677 14.171 12.862 14.619C13.172 15.375 13.592 16.017 14.12 16.544C14.6429 17.0666 15.2665 17.4776 15.953 17.752C16.653 18.036 17.38 18.177 18.135 18.177C18.84 18.177 19.56 18.088 20.293 17.911C21.0512 17.7245 21.7904 17.4677 22.501 17.144C22.489 16.994 22.478 16.803 22.467 16.569C22.4598 16.1191 22.4571 15.669 22.459 15.219V14.304C22.459 14.098 22.492 13.92 22.559 13.77C22.6331 13.6127 22.7597 13.4861 22.917 13.412C23.057 13.345 23.237 13.295 23.459 13.262C23.687 13.223 23.867 13.195 24 13.179V12.571H14.437C14.4254 12.3822 14.4198 12.1931 14.42 12.004C14.42 11.154 14.512 10.385 14.695 9.69601C14.878 9.00801 15.139 8.43301 15.478 7.97201C15.822 7.49401 16.228 7.13601 16.694 6.89701C17.161 6.65301 17.691 6.53101 18.286 6.53101C18.83 6.53101 19.296 6.63601 19.685 6.84701C20.0749 7.0487 20.4162 7.33297 20.685 7.68001C20.957 8.03001 21.179 8.42701 21.351 8.87201C21.523 9.31101 21.668 9.75801 21.784 10.213H22.468L22.393 6.08101H21.726L21.384 6.64701C20.9718 6.4038 20.5333 6.20821 20.077 6.06401C19.582 5.90401 19.002 5.82301 18.335 5.82301C17.5285 5.81754 16.7293 5.97608 15.986 6.28901C15.275 6.58298 14.6335 7.02278 14.103 7.58001C13.5514 8.15829 13.121 8.841 12.837 9.58801C12.5366 10.3869 12.3867 11.2345 12.395 12.088C12.395 12.252 12.402 12.412 12.412 12.571H11.589C11.599 12.412 11.605 12.251 11.605 12.087C11.605 11.187 11.458 10.355 11.164 9.58801C10.8797 8.84092 10.449 8.1582 9.897 7.58001C9.36668 7.02325 8.72557 6.58381 8.015 6.29001C7.27141 5.97669 6.47189 5.8178 5.665 5.82301V5.82301ZM5.182 13.179H9.502C9.45929 13.4993 9.3965 13.8166 9.314 14.129C9.15234 14.7429 8.88428 15.3237 8.522 15.845C8.18873 16.3293 7.74656 16.7286 7.231 17.011C6.714 17.294 6.128 17.436 5.473 17.436C5.01874 17.4419 4.56715 17.3657 4.14 17.211C3.735 17.061 3.449 16.903 3.282 16.736C3.23774 16.4465 3.21568 16.1539 3.216 15.861C3.21079 15.611 3.20812 15.361 3.208 15.111V14.461C3.208 14.229 3.241 14.023 3.308 13.845C3.33916 13.7534 3.39046 13.6699 3.45812 13.6007C3.52578 13.5314 3.60809 13.4782 3.699 13.445C3.882 13.362 4.132 13.301 4.449 13.262C4.69221 13.2252 4.93672 13.1975 5.182 13.179V13.179ZM14.498 13.179H18.818C18.996 13.189 19.24 13.218 19.551 13.262C19.868 13.301 20.118 13.362 20.301 13.445C20.501 13.529 20.631 13.662 20.693 13.845C20.759 14.023 20.793 14.229 20.793 14.462V15.112C20.793 15.317 20.789 15.567 20.784 15.862C20.784 16.156 20.762 16.447 20.718 16.736C20.551 16.903 20.265 17.061 19.86 17.211C19.46 17.361 19.015 17.436 18.527 17.436C17.871 17.436 17.285 17.294 16.769 17.011C16.2534 16.7286 15.8113 16.3293 15.478 15.845C15.1156 15.3234 14.8476 14.7423 14.686 14.128C14.6035 13.8156 14.5407 13.4983 14.498 13.178V13.179Z" fill="black"/>
</svg>
